{
	"asset":{
		"copyright":"quhark",
		"generator":"Khronos glTF Blender I/O v3.6.27",
		"version":"2.0"
	},
	"scene":0,
	"scenes":[
		{
			"name":"Scene",
			"nodes":[
				0,
				1
			]
		}
	],
	"nodes":[
		{
			"mesh":0,
			"name":"Cylinder",
			"rotation":[
				0.7071068286895752,
				0,
				0,
				0.7071068286895752
			]
		},
		{
			"mesh":1,
			"name":"Torus",
			"rotation":[
				0.7071068286895752,
				0,
				0,
				0.7071068286895752
			],
			"translation":[
				0,
				0,
				-0.800000011920929
			]
		}
	],
	"materials":[
		{
			"doubleSided":true,
			"name":"wood",
			"pbrMetallicRoughness":{
				"baseColorFactor":[
					0.37452247738838196,
					0.20045438408851624,
					0.10607272386550903,
					1
				],
				"metallicFactor":0,
				"roughnessFactor":0.5
			}
		},
		{
			"doubleSided":true,
			"name":"woodinside",
			"pbrMetallicRoughness":{
				"baseColorFactor":[
					0.7019370794296265,
					0.5605473518371582,
					0.3555426299571991,
					1
				],
				"metallicFactor":0,
				"roughnessFactor":0.5
			}
		},
		{
			"doubleSided":true,
			"name":"rope",
			"pbrMetallicRoughness":{
				"baseColorFactor":[
					0.28101062774658203,
					0.16436854004859924,
					0.03046181984245777,
					1
				],
				"metallicFactor":0,
				"roughnessFactor":0.5
			}
		}
	],
	"meshes":[
		{
			"name":"Cylinder",
			"primitives":[
				{
					"attributes":{
						"POSITION":0,
						"NORMAL":1,
						"TEXCOORD_0":2
					},
					"indices":3,
					"material":0
				},
				{
					"attributes":{
						"POSITION":4,
						"NORMAL":5,
						"TEXCOORD_0":6
					},
					"indices":7,
					"material":1
				}
			]
		},
		{
			"name":"Torus",
			"primitives":[
				{
					"attributes":{
						"POSITION":8,
						"NORMAL":9,
						"TEXCOORD_0":10
					},
					"indices":11,
					"material":2
				}
			]
		}
	],
	"accessors":[
		{
			"bufferView":0,
			"componentType":5126,
			"count":2079,
			"max":[
				1.7180089950561523,
				1.0040674209594727,
				0.10405243933200836
			],
			"min":[
				-0.1038968563079834,
				-1.0048859119415283,
				-0.10418915003538132
			],
			"type":"VEC3"
		},
		{
			"bufferView":1,
			"componentType":5126,
			"count":2079,
			"type":"VEC3"
		},
		{
			"bufferView":2,
			"componentType":5126,
			"count":2079,
			"type":"VEC2"
		},
		{
			"bufferView":3,
			"componentType":5123,
			"count":10368,
			"type":"SCALAR"
		},
		{
			"bufferView":4,
			"componentType":5126,
			"count":2880,
			"max":[
				1.716023564338684,
				1.0258269309997559,
				0.10398904234170914
			],
			"min":[
				-0.10101793706417084,
				-1.0266104936599731,
				-0.10273291170597076
			],
			"type":"VEC3"
		},
		{
			"bufferView":5,
			"componentType":5126,
			"count":2880,
			"type":"VEC3"
		},
		{
			"bufferView":6,
			"componentType":5126,
			"count":2880,
			"type":"VEC2"
		},
		{
			"bufferView":7,
			"componentType":5123,
			"count":5076,
			"type":"SCALAR"
		},
		{
			"bufferView":8,
			"componentType":5126,
			"count":1152,
			"max":[
				1.7350001335144043,
				1.6098480224609375,
				0.11500009894371033
			],
			"min":[
				-0.11499997973442078,
				-0.009848086163401604,
				-0.11499997973442078
			],
			"type":"VEC3"
		},
		{
			"bufferView":9,
			"componentType":5126,
			"count":1152,
			"type":"VEC3"
		},
		{
			"bufferView":10,
			"componentType":5126,
			"count":1152,
			"type":"VEC2"
		},
		{
			"bufferView":11,
			"componentType":5123,
			"count":1728,
			"type":"SCALAR"
		}
	],
	"bufferViews":[
		{
			"buffer":0,
			"byteLength":24948,
			"byteOffset":0,
			"target":34962
		},
		{
			"buffer":0,
			"byteLength":24948,
			"byteOffset":24948,
			"target":34962
		},
		{
			"buffer":0,
			"byteLength":16632,
			"byteOffset":49896,
			"target":34962
		},
		{
			"buffer":0,
			"byteLength":20736,
			"byteOffset":66528,
			"target":34963
		},
		{
			"buffer":0,
			"byteLength":34560,
			"byteOffset":87264,
			"target":34962
		},
		{
			"buffer":0,
			"byteLength":34560,
			"byteOffset":121824,
			"target":34962
		},
		{
			"buffer":0,
			"byteLength":23040,
			"byteOffset":156384,
			"target":34962
		},
		{
			"buffer":0,
			"byteLength":10152,
			"byteOffset":179424,
			"target":34963
		},
		{
			"buffer":0,
			"byteLength":13824,
			"byteOffset":189576,
			"target":34962
		},
		{
			"buffer":0,
			"byteLength":13824,
			"byteOffset":203400,
			"target":34962
		},
		{
			"buffer":0,
			"byteLength":9216,
			"byteOffset":217224,
			"target":34962
		},
		{
			"buffer":0,
			"byteLength":3456,
			"byteOffset":226440,
			"target":34963
		}
	],
	"buffers":[
		{
			"byteLength":229896,
			"uri":"data:application/octet-stream;base64,"
		}
	]
}
