{
	"asset":{
		"copyright":"quhark",
		"generator":"Khronos glTF Blender I/O v3.6.27",
		"version":"2.0"
	},
	"scene":0,
	"scenes":[
		{
			"name":"Scene",
			"nodes":[
				0
			]
		}
	],
	"nodes":[
		{
			"mesh":0,
			"name":"Cube"
		}
	],
	"materials":[
		{
			"doubleSided":true,
			"name":"fins",
			"pbrMetallicRoughness":{
				"baseColorFactor":[
					1,
					0.01879391074180603,
					0.01879391074180603,
					1
				],
				"metallicFactor":0,
				"roughnessFactor":0.5
			}
		},
		{
			"doubleSided":true,
			"name":"dark",
			"pbrMetallicRoughness":{
				"baseColorFactor":[
					0,
					0,
					0,
					1
				],
				"metallicFactor":0,
				"roughnessFactor":0.20000000298023224
			}
		},
		{
			"doubleSided":true,
			"name":"fish",
			"pbrMetallicRoughness":{
				"baseColorFactor":[
					1,
					0.07593691349029541,
					0.07593691349029541,
					1
				],
				"metallicFactor":0,
				"roughnessFactor":0.5
			}
		},
		{
			"doubleSided":true,
			"name":"eyes",
			"pbrMetallicRoughness":{
				"baseColorFactor":[
					0.31398874521255493,
					0.08021972328424454,
					0.049706585705280304,
					1
				],
				"metallicFactor":0,
				"roughnessFactor":0.20000000298023224
			}
		}
	],
	"meshes":[
		{
			"name":"Cube",
			"primitives":[
				{
					"attributes":{
						"POSITION":0,
						"NORMAL":1,
						"TEXCOORD_0":2
					},
					"indices":3,
					"material":0
				},
				{
					"attributes":{
						"POSITION":4,
						"NORMAL":5,
						"TEXCOORD_0":6
					},
					"indices":7,
					"material":1
				},
				{
					"attributes":{
						"POSITION":8,
						"NORMAL":9,
						"TEXCOORD_0":10
					},
					"indices":11,
					"material":2
				},
				{
					"attributes":{
						"POSITION":12,
						"NORMAL":13,
						"TEXCOORD_0":14
					},
					"indices":15,
					"material":3
				}
			]
		}
	],
	"accessors":[
		{
			"bufferView":0,
			"componentType":5126,
			"count":104,
			"max":[
				0.6602330207824707,
				1.280894160270691,
				1.108339548110962
			],
			"min":[
				-0.6602330207824707,
				-1.201802372932434,
				-1.2618399858474731
			],
			"type":"VEC3"
		},
		{
			"bufferView":1,
			"componentType":5126,
			"count":104,
			"type":"VEC3"
		},
		{
			"bufferView":2,
			"componentType":5126,
			"count":104,
			"type":"VEC2"
		},
		{
			"bufferView":3,
			"componentType":5123,
			"count":414,
			"type":"SCALAR"
		},
		{
			"bufferView":4,
			"componentType":5126,
			"count":28,
			"max":[
				0.264105886220932,
				0.2229599952697754,
				2.3983983993530273
			],
			"min":[
				-0.264105886220932,
				-0.21367987990379333,
				1.7187623977661133
			],
			"type":"VEC3"
		},
		{
			"bufferView":5,
			"componentType":5126,
			"count":28,
			"type":"VEC3"
		},
		{
			"bufferView":6,
			"componentType":5126,
			"count":28,
			"type":"VEC2"
		},
		{
			"bufferView":7,
			"componentType":5123,
			"count":66,
			"type":"SCALAR"
		},
		{
			"bufferView":8,
			"componentType":5126,
			"count":90,
			"max":[
				0.44172757863998413,
				0.7976413369178772,
				2.4001028537750244
			],
			"min":[
				-0.44172757863998413,
				-0.7884125113487244,
				-2.4236884117126465
			],
			"type":"VEC3"
		},
		{
			"bufferView":9,
			"componentType":5126,
			"count":90,
			"type":"VEC3"
		},
		{
			"bufferView":10,
			"componentType":5126,
			"count":90,
			"type":"VEC2"
		},
		{
			"bufferView":11,
			"componentType":5123,
			"count":546,
			"type":"SCALAR"
		},
		{
			"bufferView":12,
			"componentType":5126,
			"count":80,
			"max":[
				0.2945268452167511,
				0.2763843536376953,
				1.8932411670684814
			],
			"min":[
				-0.2945268452167511,
				0.026736006140708923,
				1.6303106546401978
			],
			"type":"VEC3"
		},
		{
			"bufferView":13,
			"componentType":5126,
			"count":80,
			"type":"VEC3"
		},
		{
			"bufferView":14,
			"componentType":5126,
			"count":80,
			"type":"VEC2"
		},
		{
			"bufferView":15,
			"componentType":5123,
			"count":324,
			"type":"SCALAR"
		}
	],
	"bufferViews":[
		{
			"buffer":0,
			"byteLength":1248,
			"byteOffset":0,
			"target":34962
		},
		{
			"buffer":0,
			"byteLength":1248,
			"byteOffset":1248,
			"target":34962
		},
		{
			"buffer":0,
			"byteLength":832,
			"byteOffset":2496,
			"target":34962
		},
		{
			"buffer":0,
			"byteLength":828,
			"byteOffset":3328,
			"target":34963
		},
		{
			"buffer":0,
			"byteLength":336,
			"byteOffset":4156,
			"target":34962
		},
		{
			"buffer":0,
			"byteLength":336,
			"byteOffset":4492,
			"target":34962
		},
		{
			"buffer":0,
			"byteLength":224,
			"byteOffset":4828,
			"target":34962
		},
		{
			"buffer":0,
			"byteLength":132,
			"byteOffset":5052,
			"target":34963
		},
		{
			"buffer":0,
			"byteLength":1080,
			"byteOffset":5184,
			"target":34962
		},
		{
			"buffer":0,
			"byteLength":1080,
			"byteOffset":6264,
			"target":34962
		},
		{
			"buffer":0,
			"byteLength":720,
			"byteOffset":7344,
			"target":34962
		},
		{
			"buffer":0,
			"byteLength":1092,
			"byteOffset":8064,
			"target":34963
		},
		{
			"buffer":0,
			"byteLength":960,
			"byteOffset":9156,
			"target":34962
		},
		{
			"buffer":0,
			"byteLength":960,
			"byteOffset":10116,
			"target":34962
		},
		{
			"buffer":0,
			"byteLength":640,
			"byteOffset":11076,
			"target":34962
		},
		{
			"buffer":0,
			"byteLength":648,
			"byteOffset":11716,
			"target":34963
		}
	],
	"buffers":[
		{
			"byteLength":12364,
			"uri":"data:application/octet-stream;base64,"
		}
	]
}
